<svg viewBox="0 0 33.867 33.867" xmlns="http://www.w3.org/2000/svg"><g display="inline" stroke="none"><path d="M182.145 493.287a11.676 11.676 0 0 0-8.584 3.29s-1.88 1.824-4.346 3.97c-2.467 2.146-5.852 4.626-6.477 4.96-1.928 1.034-7.16 1.767-13.99 2.653-6.83.886-16.562 2.469-23.348 10.969-10.266 12.861-13.15 31.903-3.771 47.867a11.676 11.676 0 0 0 16.078 4.094s7.19-4.066 8.586-4.643c2.447-1.01 7.57-1.563 13.943-2.498 6.374-.935 14.978-2.624 21.584-9.847 8.776-9.597 9.767-21.282 10.797-31.196 1.03-9.913.748-18.328.748-18.328a11.676 11.676 0 0 0-11.22-11.29z" transform="matrix(.11826 0 0 .11471 2.384 -56.511)" fill="#212121" fill-opacity="1" fill-rule="evenodd" stroke="none" stroke-width="6" stroke-linecap="round" stroke-linejoin="round" stroke-miterlimit="4" stroke-dasharray="none" stroke-dashoffset="0" stroke-opacity="1" class="fill-000000"></path><path d="M101 525.086c-.583-.164-1.705-.222-4.28.088a12.412 12.412 0 0 0-3.468.943l-6.367 2.772A12.412 12.412 0 0 0 84.1 549.97c16.692 13.313 23.64 26.46 22.488 40.777a12.412 12.412 0 0 0 12.654 13.402l10.377-.236A12.412 12.412 0 0 0 141.6 589.6c-3.846-24.755-12.267-40.69-20.695-50.424-4.213-4.867-8.378-8.158-11.869-10.303-1.745-1.072-3.304-1.859-4.754-2.453a20.043 20.043 0 0 0-2.238-.781c-.417-.118-.46-.39-1.043-.553z" transform="matrix(.11826 0 0 .11471 2.384 -56.511)" fill="#212121" fill-opacity="1" fill-rule="evenodd" stroke="none" stroke-width="6" stroke-linecap="round" stroke-linejoin="round" stroke-miterlimit="4" stroke-dasharray="none" stroke-dashoffset="0" stroke-opacity="1" class="fill-000000"></path><path d="M171.035 560.893c-13.59-.71-23.937 5.885-31.521 10.888-7.585 5.004-13.31 7.932-14.186 7.98-4.566.255-13.33-3.53-23.916-8.654-10.586-5.123-23.997-11.64-39.543-7.433-33.152 8.971-51.473 34.557-57.396 61.832-5.924 27.275-1.561 56.64 6.728 80.539 8.56 24.68 23.766 48.561 45.371 64.926 12.505 9.47 27.7 13.852 42.21 14.814 7 .464 12.399-1.483 16.333-2.767 3.935-1.285 6.5-1.924 7.6-1.922 1.05 0 4.387 1.033 9.355 2.89 4.969 1.858 12.266 4.636 21.15 2.38 30.86-7.84 51.26-30.352 64.04-50.577 6.39-10.113 10.972-19.809 14.115-27.373 3.143-7.564 5.14-13.854 5.238-14.135 10.273-29.376 10.361-60.663-.299-86.287-10.66-25.624-33.819-45.461-65.279-47.101z" transform="matrix(.11826 0 0 .11471 2.384 -56.511)" fill="#212121" fill-opacity="1" fill-rule="evenodd" stroke="none" stroke-width="6" stroke-linecap="round" stroke-linejoin="round" stroke-miterlimit="4" stroke-dasharray="none" stroke-dashoffset="0" stroke-opacity="1" class="fill-000000"></path><path d="M129.337 594.044c-7.108-47.888-30.019-56.687-31.132-56.547l-6.367 2.901c18.69 15.607 28.664 33.816 27.122 53.893z" transform="matrix(.11826 0 0 .11471 2.384 -56.511)" fill="#aa4400" fill-opacity="1" fill-rule="evenodd" stroke="none" stroke-width="3.43341517" stroke-linecap="round" stroke-linejoin="round" stroke-miterlimit="4" stroke-dasharray="none" stroke-dashoffset="0" stroke-opacity="1" class="fill-aa4400"></path><path d="M65.187 575.94C7.668 591.505 7.906 657.764 23.207 701.88c7.846 22.623 21.948 44.504 41.037 58.961 9.949 7.536 22.923 11.439 35.376 12.264 7.846.52 15.25-4.727 23.113-4.717 9.313.013 18.333 7.954 27.358 5.66 52.945-13.45 72.683-78.686 74.527-83.96 18.657-53.353-.671-113.714-54.244-116.508-17.854-.93-31.002 18.125-44.339 18.868-19.58 1.09-40.562-22-60.848-16.51z" transform="matrix(.11826 0 0 .11471 2.384 -56.511)" fill="#f52c2c" fill-opacity="1" fill-rule="evenodd" stroke="none" stroke-width="6.86683035" stroke-linecap="round" stroke-linejoin="round" stroke-miterlimit="4" stroke-dasharray="none" stroke-dashoffset="0" stroke-opacity="1" class="fill-ff5555"></path><path d="M131.695 561.081s6.598-3.96 10.142-5.424c10.091-4.168 23.999-1.377 31.367-9.434 9.479-10.365 8.49-41.273 8.49-41.273s-8.367 8.13-13.443 10.85c-10.388 5.566-26.373 1.401-33.726 10.612-7.233 9.062-9.434 23.427-2.83 34.67z" transform="matrix(.11826 0 0 .11471 2.384 -56.511)" fill="#88aa00" fill-opacity="1" fill-rule="evenodd" stroke="none" stroke-width="6.86683035" stroke-linecap="round" stroke-linejoin="round" stroke-miterlimit="4" stroke-dasharray="none" stroke-dashoffset="0" stroke-opacity="1" class="fill-88aa00"></path><path d="M48.665 636.473c1.84.324.157 14.106 1.366 33.712.556 8.958 1.909 19.253 5.218 29.468.13.405.263.81.4 1.214 3.309 9.805 8.027 18.307 13.103 25.375 12.003 16.766 24.403 25.576 23.316 27.186-.63.931-15.434-4.037-30.34-21.701a85.74 85.74 0 0 1-16-29.022c-3.648-11.489-4.646-22.755-4.408-32.37.519-21.088 6.015-34.096 7.345-33.862z" transform="matrix(.11826 0 0 .11471 2.384 -56.511)" opacity="1" fill="#212121" fill-opacity="1" fill-rule="evenodd" stroke="none" stroke-width="20" stroke-linecap="round" stroke-linejoin="round" stroke-miterlimit="4" stroke-dasharray="none" stroke-dashoffset="0" stroke-opacity="1" class="fill-000000"></path></g></svg>