<svg viewBox="0 0 512 512" xmlns="http://www.w3.org/2000/svg"><g fill="none" fill-rule="evenodd"><path d="M255.543 378.015c135.367 0 245.092-109.936 245.092-245.54H10.452c0 135.604 109.725 245.54 245.091 245.54" fill="#43d98e" class="fill-3bb777"></path><path d="M458.842 132.472c0 128.549-98.628 233.963-224.193 244.588 6.896.587 13.844.953 20.898.953 135.356 0 245.09-109.926 245.09-245.54h-41.795Z" fill="#2bd678" class="fill-229857"></path><path d="M21.128 142.936c5.475 124.79 108.533 224.615 234.423 224.615 125.879 0 228.926-99.824 234.412-224.615H21.128ZM255.55 388.487C114.636 388.487 0 273.631 0 132.468 0 126.68 4.681 122 10.449 122h490.193c5.768 0 10.449 4.68 10.449 10.468 0 141.163-114.636 256.02-255.54 256.02Z" fill="#333333" class="fill-454849"></path><path d="M255.543 333.56c110.854 0 200.715-90.026 200.715-201.093H54.828c0 111.067 89.862 201.093 200.715 201.093" fill="#f26d85" class="fill-e34361"></path><path d="M65.561 142.936c5.434 100.264 88.576 180.157 189.983 180.157 101.418 0 184.55-79.893 189.984-180.157H65.56ZM255.544 344.03c-116.433 0-211.163-94.904-211.163-211.56 0-5.79 4.67-10.469 10.449-10.469h401.44c5.767 0 10.448 4.68 10.448 10.468 0 116.657-94.73 211.561-211.174 211.561Z" fill="#333333" class="fill-454849"></path><path d="M414.467 132.472c0 103.99-78.796 189.515-179.816 199.994 6.865.712 13.834 1.1 20.898 1.1 110.853 0 200.714-90.037 200.714-201.094h-41.796Z" fill="#db305b" class="fill-bc395b"></path><path d="M65.561 142.936c5.434 100.264 88.576 180.157 189.983 180.157 101.418 0 184.55-79.893 189.984-180.157H65.56ZM255.544 344.03c-116.433 0-211.163-94.904-211.163-211.56 0-5.79 4.67-10.469 10.449-10.469h401.44c5.767 0 10.448 4.68 10.448 10.468 0 116.657-94.73 211.561-211.174 211.561Z" fill="#333333" class="fill-454849"></path><path d="M265.959 226.831c0 5.768-4.66 10.437-10.418 10.437-5.747 0-10.417-4.669-10.417-10.437s4.67-22.36 10.417-22.36c5.758 0 10.418 16.592 10.418 22.36M177.25 209.362c-2.999 4.92-1.463 11.337 3.448 14.341 4.901 3.015 11.317 1.466 14.315-3.444 3.01-4.92 7.68-21.512 2.77-24.527-4.901-3.004-17.534 8.71-20.533 13.63M144.43 185.113c-5.13 2.607-11.4.555-14.002-4.585-2.601-5.14-.553-11.42 4.577-14.027 5.13-2.606 22.016-5.946 24.618-.806 2.602 5.14-10.063 16.812-15.193 19.418M332.267 209.362c2.999 4.92 1.463 11.337-3.448 14.341-4.9 3.015-11.316 1.466-14.315-3.444-3.01-4.92-7.68-21.512-2.77-24.527 4.901-3.004 17.534 8.71 20.533 13.63M365.088 185.113c5.13 2.607 11.4.555 14.002-4.585 2.602-5.14.554-11.42-4.577-14.027-5.13-2.606-22.016-5.946-24.617-.806-2.602 5.14 10.062 16.812 15.192 19.418" fill="#333333" class="fill-454849"></path><path d="M131.357 242.352a7.818 7.818 0 0 1-5.538-2.292c-12.695-12.698-23.583-29.709-31.472-49.19-1.63-4.02.303-8.594 4.315-10.238a7.86 7.86 0 0 1 10.21 4.334c7.104 17.544 16.801 32.755 28.023 43.976 3.062 3.068 3.062 8.03.01 11.107a7.809 7.809 0 0 1-5.548 2.303M99.517 157.48c4.316 3.663 4.859 10.143 1.191 14.467-3.657 4.333-10.125 4.867-14.44 1.203-4.316-3.663-4.859-10.143-1.191-14.477 3.657-4.323 10.125-4.857 14.44-1.193" fill="#f26d85" class="fill-fefefe"></path></g></svg>